<svg width="55" height="55" viewBox="0 0 85 85"  xmlns="http://www.w3.org/2000/svg">
<path d="M12.3958 51.3542H22.6135C23.5698 51.3542 24.3313 50.5927 24.3667 49.6542L24.5792 48.7333C24.7208 48.1313 25.0219 47.5823 25.4469 47.1396L26.5271 46.0594C26.5271 46.0594 28.3156 45.0677 28.3156 42.6062V35.4167C28.3156 34.4427 27.5188 33.6458 26.5448 33.6458H12.3958C12.1656 33.6458 11.9354 33.699 11.7229 33.7875C11.2979 33.9646 10.9437 34.3188 10.7667 34.7438C10.6781 34.9563 10.625 35.1865 10.625 35.4167V49.5833C10.625 50.5573 11.4219 51.3542 12.3958 51.3542ZM24.7917 37.1875V45.3156L16.6635 37.1875H24.7917ZM21.9938 47.5115C22.1177 47.6354 22.2771 47.724 22.4188 47.7948H14.149V39.6667L21.9938 47.5115Z" fill="#0A2750"/>
<path d="M62.3333 18.4875C61.8198 17.974 61.1292 17.7083 60.4385 17.7083C59.7479 17.7083 59.075 17.974 58.5438 18.4875L28.1031 49.0167C27.7313 49.3885 27.4833 49.849 27.3771 50.3448L26.049 56.6667H12.3958C11.4219 56.6667 10.625 57.4635 10.625 58.4375V72.6042C10.625 73.5781 11.4219 74.375 12.3958 74.375H26.5625C27.5365 74.375 28.3333 73.5781 28.3333 72.6042V70.8333H14.1667V60.2083H25.3052L23.9771 66.5125C23.8177 67.3625 24.4729 68.1062 25.2875 68.1062C25.376 68.1062 25.4646 68.1063 25.5531 68.0885L41.7385 64.7417C42.2698 64.6354 42.7656 64.3698 43.1552 63.9802L73.6135 33.5219C74.6583 32.4771 74.6583 30.7948 73.6135 29.7677L62.3333 18.4875ZM60.7219 21.4625L64.4229 25.1635L36.9219 52.6646L33.2208 48.9635L60.7219 21.4625ZM33.4333 62.9354L29.1302 58.6323L30.7948 51.3188L30.7594 51.2833L40.7823 61.2885L33.4156 62.9354H33.4333ZM43.3146 59.0573L39.4188 55.1615L66.9198 27.6604L70.8156 31.5562L43.3146 59.0573Z" fill="#0A2750"/>
<path d="M12.3958 28.3333H26.5625C27.5365 28.3333 28.3333 27.5365 28.3333 26.5625V12.3958C28.3333 11.4219 27.5365 10.625 26.5625 10.625H12.3958C11.4219 10.625 10.625 11.4219 10.625 12.3958V26.5625C10.625 27.5365 11.4219 28.3333 12.3958 28.3333ZM24.7917 14.1667V22.2948L16.6635 14.1667H24.7917ZM14.1667 16.6635L22.2948 24.7917H14.1667V16.6635Z" fill="#0A2750"/>
</svg>
